<svg width="298" height="317" viewBox="0 0 298 317" fill="none" xmlns="http://www.w3.org/2000/svg">
<path d="M104.839 104.352C119.04 132.413 154.237 143.175 183.453 128.39C212.67 113.605 224.843 78.8709 210.643 50.8096C196.442 22.7482 161.246 11.9858 132.029 26.7711C102.812 41.5564 90.6388 76.2904 104.839 104.352Z" fill="#484848"/>
<path d="M82.2611 255.559C99.3018 289.233 152.788 296.454 201.726 271.689C250.665 246.924 276.523 199.549 259.482 165.876C242.442 132.202 188.955 124.981 140.017 149.746C91.0787 174.511 65.2205 221.885 82.2611 255.559Z" fill="white"/>
<path d="M68.821 129.827L122.734 110.59L113.798 94.5062L68.821 129.827Z" fill="#AA9663"/>
<path d="M63.0978 117.859L118.658 102.46L108.096 81.8277L63.0978 117.859Z" fill="#AA9663"/>
<ellipse cx="29.645" cy="28.4725" rx="29.645" ry="28.4725" transform="matrix(-0.892256 0.451529 0.451529 0.892256 159.573 32.6167)" fill="#F3F0F0"/>
<ellipse cx="17.787" cy="17.0835" rx="17.787" ry="17.0835" transform="matrix(-0.892256 0.451529 0.451529 0.892256 145.142 52.684)" fill="#484848"/>
<path d="M172.452 248.057C209.06 227.515 267.931 159.935 210.559 53.9535L158.667 119.212L114.611 115.284L122.835 273.166L172.452 248.057Z" fill="#484848"/>
<path d="M104.716 104.688C118.916 132.749 154.113 143.512 183.33 128.726C212.547 113.941 224.72 79.2071 210.519 51.1457C196.319 23.0844 161.122 12.322 131.905 27.1073C102.688 41.8926 90.5153 76.6266 104.716 104.688Z" fill="#484848"/>
<path d="M82.1376 255.895C99.1782 289.569 152.665 296.79 201.603 272.025C250.541 247.26 276.399 199.886 259.359 166.212C242.318 132.538 188.832 125.317 139.893 150.082C90.9551 174.848 65.097 222.222 82.1376 255.895Z" fill="white"/>
<path d="M68.6974 130.163L122.61 110.926L113.674 94.8423L68.6974 130.163Z" fill="#AA9663"/>
<path d="M62.9742 118.195L118.534 102.796L107.973 82.1639L62.9742 118.195Z" fill="#927F4E"/>
<ellipse cx="29.645" cy="28.4725" rx="29.645" ry="28.4725" transform="matrix(-0.892256 0.451529 0.451529 0.892256 159.45 32.9529)" fill="#F3F0F0"/>
<ellipse cx="17.787" cy="17.0835" rx="17.787" ry="17.0835" transform="matrix(-0.892256 0.451529 0.451529 0.892256 145.019 53.0201)" fill="black"/>
<path d="M172.329 248.393C208.936 227.851 267.807 160.271 210.436 54.2897L158.544 119.548L114.487 115.62L122.711 273.502L172.329 248.393Z" fill="#484848"/>
</svg>
